<svg xmlns="http://www.w3.org/2000/svg" width="19" height="14" fill="none" transform="rotate(180)" viewBox="0 0 19 14"><path fill="#000" d="M19 6.99815C18.9901 6.7479 18.8866 6.45867 18.7141 6.27625L13.0845 0.325975C12.703 -0.01503 11.9715 -0.1558 11.5451 0.238475C11.1252 0.6268 11.1377 1.37995 11.556 1.76981L15.5144 5.94813H1.05555C0.472607 5.94813 0 6.41824 0 6.99815C0 7.57807 0.472607 8.04819 1.05555 8.04819H15.5144L11.556 12.2265C11.1959 12.5855 11.1293 13.3651 11.5451 13.7578C11.9609 14.1506 12.7187 14.0251 13.0845 13.6703L18.7141 7.72007C18.9068 7.51644 19.0006 7.27752 19 6.99815V6.99815Z" opacity=".74"/></svg>