<!-- <svg width="24" height="18" transform="rotate(180)" viewBox="0 0 24 18" fill="none" xmlns="http://www.w3.org/2000/svg">
  <path d="M24 7.51676H5.70947L11.1411 2.11173L9.04421 0L0 9L9.04421 18L11.1411 15.8883L5.70947 10.4832H24V7.51676Z" fill="black"/>
</svg> -->

<!-- <svg width="39" height="18" transform="rotate(180)" viewBox="0 0 39 18" fill="none" xmlns="http://www.w3.org/2000/svg">
<path fill-rule="evenodd" clip-rule="evenodd" d="M38.5 9.92859V8.07141H15.8481V1L0 9L15.8481 17V9.92859H38.5ZM4.12151 9L13.9909 13.9821V4.01791L4.12151 9Z" fill="black" fill-opacity="0.9"/>
</svg> -->

<!-- <svg width="30" height="14" transform="rotate(180)" viewBox="0 0 30 14" fill="none" xmlns="http://www.w3.org/2000/svg">
<path fill-rule="evenodd" clip-rule="evenodd" d="M29.6154 7.72224V6.27777H12.1909V0.777779L0 7L12.1909 13.2222V7.72224H29.6154ZM3.17039 7L10.7623 10.875V3.12504L3.17039 7Z" fill="black" fill-opacity="0.28"/>
</svg> -->

<!-- <svg width="19" height="15" transform="rotate(180)" viewBox="0 0 19 15" fill="none" xmlns="http://www.w3.org/2000/svg">
<path d="M7.12609 14.3L0.299999 7.3L7.12609 0.300003L7.73478 0.924208L1.51739 7.3L7.73478 13.6758L7.12609 14.3Z" fill="black"/>
<path d="M18.3 6.85414H0.908695V7.74586H18.3V6.85414Z" fill="black"/>
</svg> -->

<svg width="19" height="14" viewBox="0 0 19 14" fill="none" xmlns="http://www.w3.org/2000/svg">
<path opacity="0.74" d="M19 6.99815C18.9901 6.7479 18.8866 6.45867 18.7141 6.27625L13.0845 0.325975C12.703 -0.01503 11.9715 -0.1558 11.5451 0.238475C11.1252 0.6268 11.1377 1.37995 11.556 1.76981L15.5144 5.94813H1.05555C0.472607 5.94813 0 6.41824 0 6.99815C0 7.57807 0.472607 8.04819 1.05555 8.04819H15.5144L11.556 12.2265C11.1959 12.5855 11.1293 13.3651 11.5451 13.7578C11.9609 14.1506 12.7187 14.0251 13.0845 13.6703L18.7141 7.72007C18.9068 7.51644 19.0006 7.27752 19 6.99815V6.99815Z" fill="black"/>
</svg>


